<svg xmlns="http://www.w3.org/2000/svg" viewBox="0 0 880 500" role="img" aria-labelledby="title desc">
  <title id="title">Family Hub Dashboard</title>
  <desc id="desc">Ein dunkles Smart-Home-Dashboard mit Familienkalender, Einkaufsliste, Räumen und Mediensteuerung.</desc>
  <defs>
    <linearGradient id="familyGlow" x1="0" x2="1" y1="0" y2="1">
      <stop stop-color="#ffc96d"/>
      <stop offset="1" stop-color="#ff7d6e"/>
    </linearGradient>
    <filter id="shadow" x="-20%" y="-20%" width="140%" height="140%">
      <feDropShadow dx="0" dy="18" stdDeviation="18" flood-color="#000" flood-opacity=".32"/>
    </filter>
  </defs>
  <rect width="880" height="500" rx="30" fill="#101218"/>
  <rect x="22" y="20" width="836" height="460" rx="24" fill="#171a22" stroke="#2d3340"/>
  <text x="52" y="66" fill="#f7efe4" font-family="Inter,Arial,sans-serif" font-size="26" font-weight="800">Guten Morgen, Familie</text>
  <text x="52" y="96" fill="#9aa3b2" font-family="Inter,Arial,sans-serif" font-size="16">Freitag · 3 Termine · Einkauf offen</text>
  <rect x="52" y="126" width="316" height="214" rx="18" fill="url(#familyGlow)" filter="url(#shadow)"/>
  <text x="78" y="172" fill="#211712" font-family="Inter,Arial,sans-serif" font-size="20" font-weight="800">Heute</text>
  <rect x="78" y="196" width="244" height="26" rx="13" fill="#fff" opacity=".68"/>
  <rect x="78" y="238" width="190" height="26" rx="13" fill="#fff" opacity=".55"/>
  <rect x="78" y="280" width="232" height="26" rx="13" fill="#fff" opacity=".45"/>
  <text x="392" y="158" fill="#f7efe4" font-family="Inter,Arial,sans-serif" font-size="18" font-weight="800">Einkauf</text>
  <rect x="392" y="176" width="204" height="164" rx="18" fill="#222733" stroke="#343b49"/>
  <circle cx="420" cy="216" r="8" fill="#35d0c5"/><rect x="440" y="207" width="106" height="16" rx="8" fill="#d8dee8" opacity=".75"/>
  <circle cx="420" cy="254" r="8" fill="#35d0c5"/><rect x="440" y="245" width="132" height="16" rx="8" fill="#d8dee8" opacity=".6"/>
  <circle cx="420" cy="292" r="8" fill="#35d0c5"/><rect x="440" y="283" width="88" height="16" rx="8" fill="#d8dee8" opacity=".5"/>
  <rect x="620" y="126" width="186" height="94" rx="18" fill="#252a35" stroke="#343b49"/>
  <text x="642" y="160" fill="#f7efe4" font-family="Inter,Arial,sans-serif" font-size="17" font-weight="800">Wohnzimmer</text>
  <text x="642" y="194" fill="#ffc96d" font-family="Inter,Arial,sans-serif" font-size="30" font-weight="800">Szene an</text>
  <rect x="620" y="246" width="186" height="94" rx="18" fill="#252a35" stroke="#343b49"/>
  <text x="642" y="280" fill="#f7efe4" font-family="Inter,Arial,sans-serif" font-size="17" font-weight="800">Medien</text>
  <rect x="642" y="304" width="118" height="14" rx="7" fill="#7ea7ff"/><circle cx="778" cy="311" r="14" fill="#f7efe4"/>
  <rect x="52" y="366" width="754" height="78" rx="18" fill="#222733" stroke="#343b49"/>
  <text x="78" y="412" fill="#f7efe4" font-family="Inter,Arial,sans-serif" font-size="20" font-weight="800">Alle sind unterwegs · Flurlicht aus · Haustür geschlossen</text>
</svg>
